<?xml version="1.0" encoding="utf-8"?>
<!-- Generator: Adobe Illustrator 19.0.0, SVG Export Plug-In . SVG Version: 6.00 Build 0)  -->
<svg version="1.1" id="Layer_1" xmlns="http://www.w3.org/2000/svg" xmlns:xlink="http://www.w3.org/1999/xlink" x="0px" y="0px"
	 viewBox="-237 372.2 80 73.3" style="enable-background:new -237 372.2 80 73.3;" xml:space="preserve">
<style type="text/css">
	.st0{fill:#FFFFFF;}
	.st1{enable-background:new    ;}
</style>
<path class="st0" d="M-162.8,373l-71,29.6c0,0-3.4,1.2-3.1,3.5c0.3,2.3,3,3.3,3,3.3l17.9,6.4c0,0,5.4,18.8,6.5,22.3
	c1.1,3.6,1.9,3.6,1.9,3.6c1,0.5,1.9-0.3,1.9-0.3l11.5-11.2l18,14.6c4.9,2.3,6.6-2.4,6.6-2.4l12.6-67.7
	C-157,370.3-162.8,373-162.8,373z M-175.4,437.1l-19.3-15.7l-6,5.8l1.3-12.3l25.7-24.3l-35,20.8l-15.5-5.5l59.2-24.6L-175.4,437.1z"
	/>
<text transform="matrix(1 0 0 1 -247 473.89)" style="font-family:'HelveticaNeue-Bold'; font-size:5px;">Created by Danil Polshin</text>
<text transform="matrix(1 0 0 1 -247 478.89)" style="font-family:'HelveticaNeue-Bold'; font-size:5px;">from the Noun Project</text>
</svg>
